# xmcd
#
# Track frame offsets:
# 150
# 17625
# 30256
# 44351
# 58060
# 72727
# 87186
# 99893
# 113095
# 127373
# 140828
# 155454
# 168791
# 183314
# 196467
# 210003
#
# Disc length: 2983 seconds
#
#
# Revision: 0
# Processed by: cddbd v1.5.1PL2 Copyright (c) Steve Scherf et al.
# Submitted via: FreeRIP 2.80 
#
DISCID=d80ba510
DTITLE=Billie Holliday - Lady Sings The Blues
DYEAR=2002
DGENRE=Blues
TTITLE0=All of me
TTITLE1=I can't get started
TTITLE2=Georgia on my mind
TTITLE3=On the sunny side of the street
TTITLE4=What is this thing called love?
TTITLE5=As time goes by
TTITLE6=When you're smiling
TTITLE7=(I love you) Porgy
TTITLE8=Baby, I don't cry over you
TTITLE9=Body and soul
TTITLE10=Embraceable you
TTITLE11=God bless the child
TTITLE12=Lover come back to me
TTITLE13=My man
TTITLE14=There is no greater love
TTITLE15=Werever you are
EXTD=Original Recordings
EXTT0=
EXTT1=
EXTT2=
EXTT3=
EXTT4=
EXTT5=
EXTT6=
EXTT7=
EXTT8=
EXTT9=
EXTT10=
EXTT11=
EXTT12=
EXTT13=
EXTT14=
EXTT15=
PLAYORDER=
